<svg width="30" height="24" viewBox="0 0 30 24" fill="none" xmlns="http://www.w3.org/2000/svg">
<g clip-path="url(#clip0_508_3401)">
<path d="M18.4203 1.94131V17.0432H18.3947L11.0805 13.4066C10.7487 13.2411 10.3845 13.1546 10.0153 13.1535H8.27504H5.17051H4.61796C4.16472 13.1535 3.73006 12.9696 3.40957 12.6423C3.08909 12.3149 2.90904 11.8709 2.90904 11.408V7.58815C2.90904 7.1252 3.08909 6.68121 3.40957 6.35386C3.73006 6.02651 4.16472 5.8426 4.61796 5.8426H9.9982C10.373 5.84224 10.7429 5.75574 11.0805 5.5895L18.3947 1.95295L18.4203 1.94131Z" stroke="#666666" stroke-width="2"/>
<path d="M20.5764 1.9413V17.0693C20.5768 17.165 20.5586 17.2597 20.523 17.3481C20.4873 17.4365 20.4349 17.5169 20.3687 17.5845C20.3025 17.6521 20.2238 17.7057 20.1373 17.7421C20.0507 17.7785 19.958 17.797 19.8643 17.7966H19.1067C18.9179 17.7966 18.7368 17.72 18.6032 17.5836C18.4697 17.4472 18.3947 17.2622 18.3947 17.0693V17.0199H18.4203V1.9413H18.3947C18.3947 1.74841 18.4697 1.56342 18.6032 1.42702C18.7368 1.29062 18.9179 1.214 19.1067 1.214H19.8643C19.958 1.21361 20.0507 1.23216 20.1373 1.26857C20.2238 1.30499 20.3025 1.35855 20.3687 1.42616C20.4349 1.49377 20.4873 1.57411 20.523 1.66252C20.5586 1.75094 20.5768 1.84569 20.5764 1.9413Z" stroke="#666666" stroke-width="1.5" stroke-linecap="round" stroke-linejoin="round"/>
<path d="M9.16083 13.1564V14.7129C9.16115 14.832 9.13814 14.95 9.09314 15.0599C9.04814 15.1699 8.98206 15.2695 8.8988 15.3529C8.81639 15.4378 8.71833 15.5051 8.61029 15.5511C8.50225 15.597 8.38637 15.6206 8.26934 15.6206V13.1593H9.16083V13.1564Z" fill="#666666"/>
<path d="M1.19391 10.0494C1.19391 10.2708 1.28003 10.4832 1.43333 10.6398C1.58663 10.7963 1.79454 10.8843 2.01134 10.8843V7.71033C1.90375 7.71033 1.79722 7.73202 1.69786 7.77416C1.5985 7.8163 1.50826 7.87807 1.43232 7.95591C1.35638 8.03375 1.29622 8.12614 1.25531 8.22777C1.2144 8.32941 1.19353 8.4383 1.19391 8.54819V10.0494Z" stroke="#666666" stroke-width="2" stroke-linecap="round" stroke-linejoin="round"/>
<path d="M8.30637 13.1593L8.28359 21.6514C8.28208 21.9528 8.16379 22.2414 7.95457 22.454C7.74535 22.6667 7.46222 22.786 7.16709 22.786H6.26706C6.12082 22.7852 5.97615 22.7551 5.84132 22.6972C5.70649 22.6393 5.58415 22.5549 5.48126 22.4487C5.37838 22.3426 5.29698 22.2167 5.2417 22.0784C5.18643 21.9401 5.15837 21.792 5.15912 21.6427L5.17336 13.1651L8.30637 13.1593Z" stroke="#666666" stroke-width="2" stroke-linecap="round" stroke-linejoin="round"/>
<path d="M9.96402 5.84259V13.1535H8.27504H5.17051H4.61796C4.16472 13.1535 3.73006 12.9696 3.40957 12.6422C3.08909 12.3149 2.90904 11.8709 2.90904 11.408V7.58813C2.90904 7.12519 3.08909 6.6812 3.40957 6.35385C3.73006 6.02649 4.16472 5.84259 4.61796 5.84259H9.96402Z" stroke="#666666" stroke-width="2" stroke-linecap="round" stroke-linejoin="round"/>
<path d="M23.146 8.49873V10.5352C23.1439 11.0147 22.9762 11.4781 22.6724 11.8437C22.3687 12.2093 21.9483 12.4537 21.4855 12.5338V6.49426C21.9493 6.57458 22.3704 6.81982 22.6742 7.18664C22.9781 7.55346 23.1452 8.01821 23.146 8.49873Z" stroke="#666666" stroke-width="1.5" stroke-miterlimit="10"/>
<path d="M26.8344 3.87799L24.5786 6.18502" stroke="#666666" stroke-width="2" stroke-miterlimit="10" stroke-linecap="round"/>
<path d="M28.4835 9.4704H25.2052" stroke="#666666" stroke-width="2" stroke-miterlimit="10" stroke-linecap="round"/>
<path d="M24.6214 12.782L26.7433 14.9494" stroke="#666666" stroke-width="2" stroke-miterlimit="10" stroke-linecap="round"/>
</g>
<defs>
<clipPath id="clip0_508_3401">
<rect width="30" height="24" fill="white"/>
</clipPath>
</defs>
</svg>
