<svg width="17" height="17" viewBox="0 0 17 17" fill="none" xmlns="http://www.w3.org/2000/svg">
<path d="M14.5 8.16667C14.5023 9.04658 14.2967 9.91459 13.9 10.7C13.4296 11.6412 12.7065 12.4328 11.8116 12.9862C10.9168 13.5396 9.8855 13.8329 8.83333 13.8333C7.95342 13.8356 7.08541 13.6301 6.3 13.2333L2.5 14.5L3.76667 10.7C3.36995 9.91459 3.16437 9.04658 3.16667 8.16667C3.16707 7.11451 3.46041 6.08324 4.01381 5.18837C4.56722 4.2935 5.35884 3.57038 6.3 3.1C7.08541 2.70329 7.95342 2.49771 8.83333 2.5H9.16667C10.5562 2.57666 11.8687 3.16318 12.8528 4.14724C13.8368 5.13131 14.4233 6.44377 14.5 7.83334V8.16667Z" stroke="#F8F7FA" stroke-width="2" stroke-linecap="round" stroke-linejoin="round"/>
</svg>
