<svg width="25" height="24" viewBox="0 0 25 24" fill="none" xmlns="http://www.w3.org/2000/svg">
<path d="M15.0805 10.9256C15.1521 11.3042 15.2033 11.6828 15.2033 12.1739C15.2033 16.4611 12.3281 19.5 8 19.5C3.85609 19.5 0.5 16.1439 0.5 12C0.5 7.85605 3.85609 4.5 8 4.5C10.0259 4.5 11.7142 5.23668 13.0239 6.46453L10.9877 8.41883C10.4352 7.88676 9.46316 7.26262 8 7.26262C5.44203 7.26262 3.35469 9.38062 3.35469 12C3.35469 14.6194 5.44203 16.7374 8 16.7374C10.9672 16.7374 12.0825 14.5989 12.2564 13.5041H8V10.9256H15.0805V10.9256ZM22.3229 11.1771V9H20.1354V11.1771H17.9583V13.3646H20.1354V15.5417H22.3229V13.3646H24.5V11.1771H22.3229Z" fill="white"/>
</svg>
