<svg width="17" height="17" viewBox="0 0 17 17" fill="none" xmlns="http://www.w3.org/2000/svg">
<g clip-path="url(#clip0_631_2520)">
<path d="M14.5 7.1665C14.5 11.8332 8.5 15.8332 8.5 15.8332C8.5 15.8332 2.5 11.8332 2.5 7.1665C2.5 5.5752 3.13214 4.04908 4.25736 2.92386C5.38258 1.79864 6.9087 1.1665 8.5 1.1665C10.0913 1.1665 11.6174 1.79864 12.7426 2.92386C13.8679 4.04908 14.5 5.5752 14.5 7.1665Z" stroke="#666666" stroke-width="2" stroke-linecap="round" stroke-linejoin="round"/>
<path d="M8.5 9.1665C9.60457 9.1665 10.5 8.27107 10.5 7.1665C10.5 6.06193 9.60457 5.1665 8.5 5.1665C7.39543 5.1665 6.5 6.06193 6.5 7.1665C6.5 8.27107 7.39543 9.1665 8.5 9.1665Z" stroke="#666666" stroke-width="2" stroke-linecap="round" stroke-linejoin="round"/>
</g>
<defs>
<clipPath id="clip0_631_2520">
<rect width="16" height="16" fill="white" transform="translate(0.5 0.5)"/>
</clipPath>
</defs>
</svg>
