<svg width="17" height="17" viewBox="0 0 17 17" fill="none" xmlns="http://www.w3.org/2000/svg">
<g clip-path="url(#clip0_631_2525)">
<path d="M15.1667 11.7802V13.7802C15.1674 13.9659 15.1294 14.1497 15.055 14.3198C14.9806 14.4899 14.8715 14.6426 14.7347 14.7681C14.5979 14.8937 14.4364 14.9892 14.2605 15.0487C14.0846 15.1082 13.8983 15.1303 13.7133 15.1136C11.6619 14.8907 9.69134 14.1897 7.96001 13.0669C6.34923 12.0433 4.98356 10.6777 3.96001 9.06689C2.83333 7.3277 2.13217 5.34756 1.91334 3.28689C1.89668 3.10254 1.91859 2.91673 1.97767 2.74131C2.03676 2.56589 2.13172 2.40469 2.25652 2.26797C2.38131 2.13126 2.53321 2.02203 2.70253 1.94724C2.87186 1.87245 3.0549 1.83374 3.24001 1.83356H5.24001C5.56354 1.83038 5.8772 1.94495 6.12251 2.15592C6.36783 2.36689 6.52806 2.65986 6.57334 2.98023C6.65775 3.62027 6.81431 4.24871 7.04001 4.85356C7.1297 5.09218 7.14911 5.3515 7.09594 5.60081C7.04277 5.85012 6.91925 6.07897 6.74001 6.26023L5.89334 7.10689C6.84238 8.77592 8.22431 10.1579 9.89334 11.1069L10.74 10.2602C10.9213 10.081 11.1501 9.95746 11.3994 9.90429C11.6487 9.85112 11.9081 9.87053 12.1467 9.96023C12.7515 10.1859 13.38 10.3425 14.02 10.4269C14.3439 10.4726 14.6396 10.6357 14.851 10.8852C15.0624 11.1348 15.1748 11.4533 15.1667 11.7802Z" stroke="#666666" stroke-width="2" stroke-linecap="round" stroke-linejoin="round"/>
</g>
<defs>
<clipPath id="clip0_631_2525">
<rect width="16" height="16" fill="white" transform="translate(0.5 0.5)"/>
</clipPath>
</defs>
</svg>
