<svg width="25" height="24" viewBox="0 0 25 24" fill="none" xmlns="http://www.w3.org/2000/svg">
<path d="M19.9477 8.18099C19.9596 8.34755 19.9596 8.51413 19.9596 8.68069C19.9596 13.7608 16.093 19.6142 9.02604 19.6142C6.84885 19.6142 4.82634 18.9836 3.12503 17.8891C3.43437 17.9248 3.73177 17.9367 4.05301 17.9367C5.84946 17.9367 7.50319 17.33 8.82379 16.2949C7.13438 16.2592 5.71861 15.1528 5.23082 13.6299C5.46878 13.6656 5.70671 13.6894 5.95657 13.6894C6.30158 13.6894 6.64662 13.6418 6.96783 13.5585C5.20705 13.2016 3.88642 11.655 3.88642 9.78712V9.73955C4.39798 10.0251 4.99289 10.2035 5.62339 10.2273C4.58834 9.53726 3.91022 8.35945 3.91022 7.02695C3.91022 6.31313 4.10054 5.65879 4.43369 5.08772C6.32535 7.41957 9.16879 8.94238 12.3572 9.10897C12.2977 8.82344 12.262 8.52604 12.262 8.2286C12.262 6.11088 13.9752 4.3858 16.1048 4.3858C17.2113 4.3858 18.2106 4.84979 18.9126 5.59932C19.781 5.43276 20.6138 5.11152 21.3515 4.67134C21.0659 5.56365 20.4592 6.31317 19.6621 6.78903C20.4354 6.70579 21.1849 6.49159 21.875 6.19419C21.3516 6.95558 20.6972 7.63369 19.9477 8.18099Z" fill="white"/>
</svg>
